<?xml version="1.0" encoding="utf-8"?>
<!-- Generator: Adobe Illustrator 16.0.0, SVG Export Plug-In . SVG Version: 6.00 Build 0)  -->
<!DOCTYPE svg PUBLIC "-//W3C//DTD SVG 1.1//EN" "http://www.w3.org/Graphics/SVG/1.1/DTD/svg11.dtd">
<svg version="1.1" id="Layer_1" xmlns="http://www.w3.org/2000/svg" xmlns:xlink="http://www.w3.org/1999/xlink" x="0px" y="0px"
	 width="500px" height="500px" viewBox="0 0 500 500" enable-background="new 0 0 500 500" xml:space="preserve">
<ellipse fill="#666666" cx="248.44" cy="250" rx="248.5" ry="250"/>
<g>
	<path fill-rule="evenodd" clip-rule="evenodd" fill="#FFFFFF" d="M316.395,266c-1.216,0-2.432,0-3.647,0
		c-55.521,0-111.041-0.017-166.561,0.024c-5.295,0.004-10-1.269-13.603-5.314c-4.37-4.907-5.436-10.61-3.135-16.713
		c2.282-6.051,6.86-9.463,13.301-10.253c1.443-0.177,2.915-0.174,4.373-0.174c55.374-0.006,110.749-0.002,166.123-0.004
		c0.772,0,1.545-0.065,2.985-0.13c-3.454-3.378-6.484-6.301-9.471-9.269c-16.008-15.912-32.035-31.804-47.992-47.768
		c-8.665-8.668-5.434-23.145,6.023-26.891c6.358-2.079,12.126-0.746,16.921,4.045c21.55,21.529,43.082,43.076,64.622,64.616
		c6.611,6.612,13.219,13.227,19.841,19.829c7.401,7.379,7.424,16.997,0.003,24.422c-27.682,27.692-55.371,55.377-83.063,83.059
		c-6.636,6.633-16.677,6.767-23.163,0.337c-6.457-6.4-6.449-16.499,0.207-23.16c18.279-18.29,36.628-36.511,54.956-54.751
		c0.464-0.462,1.024-0.827,1.54-1.237C316.566,266.444,316.48,266.222,316.395,266z"/>
</g>
</svg>
