<?xml version="1.0" encoding="utf-8"?>
<!-- Generator: Adobe Illustrator 16.0.0, SVG Export Plug-In . SVG Version: 6.00 Build 0)  -->
<!DOCTYPE svg PUBLIC "-//W3C//DTD SVG 1.1//EN" "http://www.w3.org/Graphics/SVG/1.1/DTD/svg11.dtd">
<svg version="1.1" id="Layer_1" xmlns="http://www.w3.org/2000/svg" xmlns:xlink="http://www.w3.org/1999/xlink" x="0px" y="0px"
	 width="960px" height="757px" viewBox="0 0 960 757" enable-background="new 0 0 960 757" xml:space="preserve">
<path fill="#EDEEEF" d="M825.812,561.42c0,7.679-5.369,13.904-11.993,13.904H146.181c-6.624,0-11.994-6.226-11.994-13.904v-45.191
	c0-7.679,5.37-13.904,11.994-13.904h667.639c6.624,0,11.993,6.226,11.993,13.904V561.42z"/>
<g>
	<path fill-rule="evenodd" clip-rule="evenodd" fill="#585858" d="M825.812,512.968c-230.828,0-460.793,0-691.625,0
		c0-2.53,0-4.795,0-7.06c0-128.78-0.003-257.559,0.004-386.338c0-12.808,4.994-17.885,17.675-17.885
		c218.753-0.011,437.508-0.011,656.261,0c12.475,0,17.676,5.075,17.677,17.239c0.012,129.206,0.008,258.412,0.008,387.617
		C825.812,508.441,825.812,510.341,825.812,512.968z M800.447,127.314c-214.062,0-427.337,0-640.667,0
		c0,120.063,0,239.691,0,359.249c213.836,0,427.113,0,640.667,0C800.447,366.649,800.447,247.171,800.447,127.314z"/>
</g>
<g>
	<polygon fill="none" points="542.567,554.991 418.234,551.658 410.882,575.657 548.359,575.657 	"/>
	<polygon opacity="0.4" fill="#E8EBF0" points="410.882,575.657 389.641,644.991 567.791,644.991 548.359,575.657 	"/>
</g>
<rect x="364.288" y="644.991" fill="#D8DBE1" width="230.667" height="10.333"/>
<path fill="none" d="M347.9,650.158"/>
<path fill="none" d="M389.641,644.991"/>
<path fill="none" d="M567.791,644.991"/>
</svg>
