<?xml version="1.0" encoding="utf-8"?>
<!-- Generator: Adobe Illustrator 16.0.0, SVG Export Plug-In . SVG Version: 6.00 Build 0)  -->
<!DOCTYPE svg PUBLIC "-//W3C//DTD SVG 1.1//EN" "http://www.w3.org/Graphics/SVG/1.1/DTD/svg11.dtd">
<svg version="1.1"
	 id="svg3457" xmlns:dc="http://purl.org/dc/elements/1.1/" xmlns:cc="http://creativecommons.org/ns#" xmlns:rdf="http://www.w3.org/1999/02/22-rdf-syntax-ns#" xmlns:svg="http://www.w3.org/2000/svg" xmlns:sodipodi="http://sodipodi.sourceforge.net/DTD/sodipodi-0.dtd" xmlns:inkscape="http://www.inkscape.org/namespaces/inkscape" sodipodi:docname="T SHIRT DESIGN.svg" inkscape:version="0.91 r13725"
	 xmlns="http://www.w3.org/2000/svg" xmlns:xlink="http://www.w3.org/1999/xlink" x="0px" y="0px" width="2400px" height="2000px"
	 viewBox="0 0 2400 2000" enable-background="new 0 0 2400 2000" xml:space="preserve">
<sodipodi:namedview  showguides="true" gridtolerance="10" objecttolerance="10" guidetolerance="10" showgrid="false" inkscape:cy="672.7236" inkscape:cx="1118.0035" inkscape:zoom="0.32" borderopacity="1" bordercolor="#666666" pagecolor="#000000" id="namedview3459" inkscape:showpageshadow="false" inkscape:guide-bbox="true" inkscape:window-maximized="0" inkscape:window-y="43" inkscape:pageshadow="2" inkscape:pageopacity="0.8745098" inkscape:window-x="20" inkscape:current-layer="svg3457" inkscape:window-height="856" inkscape:window-width="1440">
	<sodipodi:guide  orientation="1,0" position="482.58862,1134.5066" id="guide4424"></sodipodi:guide>
</sodipodi:namedview>
<g id="flowRoot4398">
</g>
<g id="flowRoot4410">
</g>
<text transform="matrix(1 0 0 1 426.1453 1294.0417)" font-family="'OSP-DIN'" font-size="250"> LIBRE GRAPHICS</text>
<text transform="matrix(1 0 0 1 479.7664 1477.4822)" font-family="'OSP-DIN'" font-size="180">MEETING 2016</text>
<text transform="matrix(1 0 0 1 476.9441 1652.4548)" font-family="'OSP-DIN'" font-size="180">LONDON</text>
<text transform="matrix(1 0 0 1 480.5881 1833.073)" font-family="'OSP-DIN'" font-size="180">15-18 APRIL</text>
<path id="path3235" inkscape:connector-curvature="0" d="M2006.414,117.849c-17.57-5.82-35.141-11.317-52.712-17.137
	c-84.403-27.484-168.492-54.646-252.582-81.807c-3.451-1.293-6.902-1.293-10.668,0c-77.813,28.454-155.628,56.909-233.755,85.363
	c-1.883,0.646-4.079,0.646-5.962,0c-48.947-17.138-97.581-34.274-146.215-51.412c-4.079-1.293-7.53-1.293-11.296,0
	c-76.872,27.484-153.745,54.646-230.617,81.807c-2.824,1.293-5.334,1.293-8.158,0C1000.795,113,947.455,91.336,893.801,69.672
	c-3.137-1.294-5.961-1.294-9.099-0.324c-149.353,48.825-298.392,97.327-447.744,145.828c-4.393,1.294-8.472,2.91-12.864,4.527
	c0,1.616,0,3.557,0,5.174c0.628,4.203,1.569,8.083,2.196,12.61c6.275,52.058,12.864,104.439,19.454,156.498
	c5.02,41.065,10.354,82.13,15.374,123.194c8.472,69.195,17.257,138.392,26.043,207.587c0.627,5.174,1.568,10.023,1.882,15.197
	c0.314,3.88,1.883,6.144,5.021,8.406c107.308,75.663,214.93,151.002,322.237,226.665c3.766,2.586,6.59,2.586,10.354,0.646
	c84.717-44.622,169.12-89.243,253.837-133.541c20.395-10.994,40.789-21.664,61.184-32.658c2.824-1.293,4.707-1.293,7.531,0.323
	c47.064,27.808,93.815,55.615,140.881,83.423c2.51,1.617,4.706,1.617,7.53,0c89.423-50.118,178.846-100.56,268.27-150.678
	c13.178-7.438,26.356-14.874,39.534-22.312c2.51-1.293,4.393-1.293,6.903,0c31.69,16.168,63.38,32.012,94.757,48.502
	c4.707,2.587,8.158,2.264,12.551-0.323c32.945-19.725,65.891-39.125,98.836-58.849c45.811-27.161,91.62-54.646,137.743-81.806
	c4.706-2.587,7.53-5.497,7.845-11.641c1.254-18.754,3.137-37.185,5.02-55.615c2.197-21.987,4.079-43.651,6.275-65.315
	c1.883-20.371,4.079-41.064,5.962-61.759c3.765-40.418,7.844-81.159,11.609-121.577c3.138-30.395,5.962-61.112,8.785-91.507
	c2.511-26.838,5.334-53.998,7.845-81.159c0.313-5.174,1.254-10.023,1.568-14.874C2011.435,120.76,2009.553,118.819,2006.414,117.849
	L2006.414,117.849z M1975.352,135.31c-74.676,34.921-149.666,69.842-224.343,104.764c-1.882,0.97-5.02,0.646-7.216,0
	c-34.828-12.287-69.343-24.574-103.856-37.185c-4.394-1.617-8.158-1.617-12.551,0.323
	c-110.132,45.914-219.95,91.506-330.082,137.421c-3.451,1.293-6.275,1.293-9.413-0.323
	c-52.398-23.281-104.797-45.915-156.883-69.196c-3.765-1.616-6.902-1.939-10.668-0.323
	c-112.642,46.238-225.598,92.477-338.239,138.392c-1.568,0.646-4.393,0.646-5.961-0.323
	C664.439,348.07,552.424,287.282,440.724,226.493c-2.196-1.293-4.393-2.587-7.53-4.203c2.196-0.646,3.766-1.294,5.334-1.94
	c122.368-40.095,245.051-79.866,367.42-119.637c26.042-8.73,52.398-17.138,78.441-25.545c2.51-0.97,5.647-0.646,8.157,0.323
	c53.341,21.341,106.681,43.005,160.021,64.669c3.766,1.617,6.903,1.617,10.354,0.323c77.187-27.16,154.373-54.645,231.56-81.806
	c2.51-0.97,5.334-0.97,7.844,0c48.634,16.813,97.268,33.951,145.901,51.088c3.451,1.294,6.589,1.294,10.04,0
	c77.814-28.454,155.314-56.908,233.128-85.039c2.511-0.97,5.334-0.97,7.845-0.323c100.091,32.334,200.496,64.669,300.588,97.003
	c0.312,0.323,0.627,0.323,2.195,0.971C1992.61,126.903,1984.137,131.106,1975.352,135.31L1975.352,135.31z"/>
</svg>
